<svg width="16" height="14" viewBox="0 0 16 14" fill="none" xmlns="http://www.w3.org/2000/svg">
  <path d="M6.42272 0.510905L-2.93722e-07 6.96704L6.42272 13.4232C6.48073 13.4994 6.55442 13.5622 6.63882 13.6074C6.72321 13.6526 6.81634 13.6792 6.91189 13.6853C7.00744 13.6914 7.10318 13.6769 7.19264 13.6427C7.2821 13.6086 7.36318 13.5557 7.43039 13.4875C7.49761 13.4193 7.54939 13.3375 7.58223 13.2475C7.61507 13.1576 7.62821 13.0617 7.62075 12.9662C7.61329 12.8707 7.58541 12.778 7.53899 12.6943C7.49257 12.6105 7.42871 12.5377 7.35171 12.4808L2.54637 7.63538L15.3317 7.63538C15.5089 7.63538 15.6789 7.56497 15.8042 7.43963C15.9296 7.31429 16 7.1443 16 6.96704C16 6.78979 15.9296 6.61979 15.8042 6.49446C15.6789 6.36912 15.5089 6.29871 15.3317 6.29871L2.54637 6.29871L7.35171 1.45326C7.47668 1.32741 7.54653 1.15707 7.5459 0.979719C7.54528 0.802367 7.47422 0.632526 7.34837 0.507562C7.22252 0.382599 7.05218 0.312747 6.87483 0.313373C6.69748 0.314 6.52764 0.385054 6.40267 0.510905L6.42272 0.510905Z" fill="#6543FA" />
</svg>