<svg width="20" height="20" viewBox="0 0 20 20" fill="none" xmlns="http://www.w3.org/2000/svg">
  <path d="M2 10.5C2 7.43561 2 5.90378 3.13867 4.95189C4.27889 4 6.11133 4 9.77778 4C13.4442 4 15.2774 4 16.4161 4.95189C17.5548 5.90378 17.5556 7.43633 17.5556 10.5C17.5556 13.5637 17.5556 15.0962 16.4161 16.0481C15.2782 17 13.4442 17 9.77778 17C6.11133 17 4.27811 17 3.13867 16.0481C1.99922 15.0962 2 13.5637 2 10.5Z" stroke="#D4CEFF" stroke-width="1.5" stroke-linecap="round" stroke-linejoin="round" />
  <path d="M5.11121 13.3889H8.22232M11.3334 7.61111H14.4445M11.3334 10.5H14.4445M11.3334 13.3889H14.4445M6.97787 7.61111H6.35565C5.76921 7.61111 5.47598 7.61111 5.29321 7.78011C5.11121 7.95055 5.11121 8.22211 5.11121 8.76666V9.34444C5.11121 9.889 5.11121 10.1613 5.29321 10.331C5.47676 10.5 5.76921 10.5 6.35565 10.5H6.97787C7.56432 10.5 7.85754 10.5 8.04032 10.331C8.22232 10.1606 8.22232 9.889 8.22232 9.34444V8.76666C8.22232 8.22211 8.22232 7.94983 8.04032 7.78011C7.85676 7.61111 7.56432 7.61111 6.97787 7.61111Z" stroke="#D4CEFF" stroke-width="1.5" stroke-linecap="round" stroke-linejoin="round" />
</svg>