<svg width="21" height="16" viewBox="0 0 21 16" fill="none" xmlns="http://www.w3.org/2000/svg">
  <path fill-rule="evenodd" clip-rule="evenodd" d="M8.5 0H12.5C16.271 0 18.157 -1.19209e-07 19.328 1.172C20.5 2.343 20.5 4.229 20.5 8C20.5 11.771 20.5 13.657 19.328 14.828C18.157 16 16.271 16 12.5 16H8.5C4.729 16 2.843 16 1.672 14.828C0.5 13.657 0.5 11.771 0.5 8C0.5 4.229 0.5 2.343 1.672 1.172C2.843 -1.19209e-07 4.729 0 8.5 0ZM11.75 5C11.75 4.80109 11.829 4.61032 11.9697 4.46967C12.1103 4.32902 12.3011 4.25 12.5 4.25H17.5C17.6989 4.25 17.8897 4.32902 18.0303 4.46967C18.171 4.61032 18.25 4.80109 18.25 5C18.25 5.19891 18.171 5.38968 18.0303 5.53033C17.8897 5.67098 17.6989 5.75 17.5 5.75H12.5C12.3011 5.75 12.1103 5.67098 11.9697 5.53033C11.829 5.38968 11.75 5.19891 11.75 5ZM12.75 8C12.75 7.80109 12.829 7.61032 12.9697 7.46967C13.1103 7.32902 13.3011 7.25 13.5 7.25H17.5C17.6989 7.25 17.8897 7.32902 18.0303 7.46967C18.171 7.61032 18.25 7.80109 18.25 8C18.25 8.19891 18.171 8.38968 18.0303 8.53033C17.8897 8.67098 17.6989 8.75 17.5 8.75H13.5C13.3011 8.75 13.1103 8.67098 12.9697 8.53033C12.829 8.38968 12.75 8.19891 12.75 8ZM13.75 11C13.75 10.8011 13.829 10.6103 13.9697 10.4697C14.1103 10.329 14.3011 10.25 14.5 10.25H17.5C17.6989 10.25 17.8897 10.329 18.0303 10.4697C18.171 10.6103 18.25 10.8011 18.25 11C18.25 11.1989 18.171 11.3897 18.0303 11.5303C17.8897 11.671 17.6989 11.75 17.5 11.75H14.5C14.3011 11.75 14.1103 11.671 13.9697 11.5303C13.829 11.3897 13.75 11.1989 13.75 11ZM9.5 5C9.5 5.53043 9.28929 6.03914 8.91421 6.41421C8.53914 6.78929 8.03043 7 7.5 7C6.96957 7 6.46086 6.78929 6.08579 6.41421C5.71071 6.03914 5.5 5.53043 5.5 5C5.5 4.46957 5.71071 3.96086 6.08579 3.58579C6.46086 3.21071 6.96957 3 7.5 3C8.03043 3 8.53914 3.21071 8.91421 3.58579C9.28929 3.96086 9.5 4.46957 9.5 5ZM7.5 13C11.5 13 11.5 12.105 11.5 11C11.5 9.895 9.71 9 7.5 9C5.29 9 3.5 9.895 3.5 11C3.5 12.105 3.5 13 7.5 13Z" fill="white" />
</svg>