<svg width="20" height="20" viewBox="0 0 20 20" fill="none" xmlns="http://www.w3.org/2000/svg">
<path fill-rule="evenodd" clip-rule="evenodd" d="M3.03457 10.5957L2.76747 9.995L3.03457 9.39431C3.6492 8.01119 4.65181 6.83602 5.92088 6.01124C7.18994 5.18645 8.67099 4.74746 10.1845 4.74746C11.6981 4.74746 13.1791 5.18645 14.4482 6.01124C15.7173 6.83602 16.7199 8.01119 17.3345 9.39431L17.6004 9.995L17.3333 10.5957C16.7185 11.9785 15.7159 13.1533 14.447 13.9778C13.1781 14.8024 11.6972 15.2412 10.184 15.2412C8.67066 15.2412 7.18983 14.8024 5.92089 13.9778C4.65195 13.1533 3.64936 11.9785 3.03457 10.5957ZM1.43662 8.68398L1.13336 9.36632C1.04543 9.56445 1 9.77881 1 9.99558C1 10.2124 1.04543 10.4267 1.13336 10.6248L1.43662 11.306C2.18892 12.9979 3.41571 14.4354 4.96837 15.4442C6.52102 16.4531 8.33291 16.99 10.1845 16.99C12.0362 16.99 13.848 16.4531 15.4007 15.4442C16.9534 14.4354 18.1801 12.9979 18.9324 11.306L19.2357 10.6248C19.3238 10.4266 19.3693 10.212 19.3693 9.995C19.3693 9.77802 19.3238 9.56344 19.2357 9.36515L18.9324 8.68398C18.1801 6.99207 16.9534 5.55463 15.4007 4.54579C13.848 3.53695 12.0362 3 10.1845 3C8.33291 3 6.52102 3.53695 4.96837 4.54579C3.41571 5.55463 2.18892 6.99207 1.43662 8.68398ZM11.9341 9.995C11.9341 10.459 11.7498 10.904 11.4217 11.2321C11.0936 11.5603 10.6486 11.7446 10.1845 11.7446C9.72052 11.7446 9.2755 11.5603 8.94739 11.2321C8.61928 10.904 8.43495 10.459 8.43495 9.995C8.43495 9.53098 8.61928 9.08597 8.94739 8.75786C9.2755 8.42975 9.72052 8.24542 10.1845 8.24542C10.6486 8.24542 11.0936 8.42975 11.4217 8.75786C11.7498 9.08597 11.9341 9.53098 11.9341 9.995ZM13.6837 9.995C13.6837 10.923 13.315 11.8131 12.6588 12.4693C12.0026 13.1255 11.1126 13.4942 10.1845 13.4942C9.2565 13.4942 8.36647 13.1255 7.71025 12.4693C7.05403 11.8131 6.68537 10.923 6.68537 9.995C6.68537 9.06696 7.05403 8.17694 7.71025 7.52072C8.36647 6.8645 9.2565 6.49583 10.1845 6.49583C11.1126 6.49583 12.0026 6.8645 12.6588 7.52072C13.315 8.17694 13.6837 9.06696 13.6837 9.995Z" fill="#BFC5D5"/>
</svg>
