<svg width="20" height="20" viewBox="0 0 20 20" fill="none" xmlns="http://www.w3.org/2000/svg">
<path d="M3.8 8.7V11.9C3.8 14.54 3.8 15.86 4.62 16.68C5.44 17.5 6.76 17.5 9.4 17.5H11C13.64 17.5 14.96 17.5 15.78 16.68C16.6 15.86 16.6 14.54 16.6 11.9V8.7M10.2 4.5856C10.2 3.76725 9.87491 2.98241 9.29625 2.40375C8.71759 1.82509 7.93275 1.5 7.1144 1.5H6.8288C6.04 1.5 5.4 2.1392 5.4 2.9288C5.4 3.61072 5.67089 4.26472 6.15309 4.74691C6.63528 5.22911 7.28928 5.5 7.9712 5.5H10.2M10.2 4.5856V5.5M10.2 4.5856C10.2 3.76725 10.5251 2.98241 11.1038 2.40375C11.6824 1.82509 12.4672 1.5 13.2856 1.5H13.5712C14.36 1.5 15 2.1392 15 2.9288C15 3.26645 14.9335 3.6008 14.8043 3.91276C14.6751 4.22471 14.4857 4.50815 14.2469 4.74691C14.0082 4.98567 13.7247 5.17506 13.4128 5.30428C13.1008 5.43349 12.7665 5.5 12.4288 5.5H10.2M10.2 8.7V17.5M3 7.1C3 6.5016 3 6.2024 3.1608 5.98C3.27485 5.82719 3.42602 5.70603 3.6 5.628C3.8784 5.5 4.252 5.5 5 5.5H15.4C16.148 5.5 16.5216 5.5 16.8 5.628C16.9824 5.7128 17.1336 5.8344 17.2392 5.98C17.4 6.2024 17.4 6.5016 17.4 7.1C17.4 7.6984 17.4 7.9968 17.2392 8.22C17.1252 8.37281 16.974 8.49397 16.8 8.572C16.5216 8.7 16.148 8.7 15.4 8.7H5C4.252 8.7 3.8784 8.7 3.6 8.572C3.42602 8.49397 3.27485 8.37281 3.1608 8.22C3 7.9968 3 7.6984 3 7.1Z" stroke="#BFC5D5" stroke-width="1.5" stroke-linecap="round" stroke-linejoin="round"/>
</svg>
