<svg width="20" height="20" viewBox="0 0 20 20" fill="none" xmlns="http://www.w3.org/2000/svg">
  <path fill-rule="evenodd" clip-rule="evenodd" d="M6.58951 2.75C6.26395 2.75 6.00001 3.01374 6.00001 3.3395C6.00001 3.77989 6.17495 4.20225 6.48636 4.51365C6.79776 4.82505 7.22012 5 7.66051 5H9.00001V4.89275C9.00001 4.32446 8.77425 3.77944 8.37241 3.3776C7.97057 2.97575 7.42555 2.75 6.85726 2.75H6.58951ZM9.75001 2.67876C9.65298 2.552 9.5472 2.43107 9.43307 2.31694C8.74992 1.63379 7.82337 1.25 6.85726 1.25H6.58951C5.43607 1.25 4.50001 2.18476 4.50001 3.3395C4.50001 3.93077 4.66569 4.50496 4.97135 5L4.84957 5C4.52068 4.99999 4.23477 4.99998 3.99968 5.01694C3.75426 5.03466 3.49998 5.07396 3.25249 5.18707C2.97418 5.31253 2.73233 5.50672 2.54971 5.7514L2.54298 5.76056C2.36398 6.00813 2.30043 6.27174 2.27362 6.50837C2.24992 6.71758 2.24996 6.9652 2.25 7.21725C2.25001 7.22816 2.25001 7.23908 2.25001 7.25C2.25001 7.26093 2.25001 7.27186 2.25 7.28277C2.24996 7.5348 2.24992 7.78225 2.27362 7.99139C2.30048 8.22829 2.36408 8.49111 2.54223 8.7384L2.54971 8.7486C2.67456 8.91587 2.82708 9.05954 3.00001 9.17379V11.804C2.99998 12.9956 2.99996 13.9655 3.10279 14.7304C3.21006 15.5284 3.44146 16.2146 3.98843 16.7616C4.5354 17.3085 5.22164 17.5399 6.01962 17.6472C6.78452 17.75 7.75442 17.75 8.94598 17.75H10.554C11.7456 17.75 12.7155 17.75 13.4804 17.6472C14.2784 17.5399 14.9646 17.3085 15.5116 16.7616C16.0586 16.2146 16.29 15.5284 16.3972 14.7304C16.5001 13.9655 16.5 12.9956 16.5 11.804V9.17379C16.6729 9.05954 16.8255 8.91587 16.9503 8.7486L16.9578 8.7384C17.1359 8.49111 17.1995 8.22829 17.2264 7.99139C17.2501 7.78225 17.2501 7.53479 17.25 7.28276V7.21725C17.2501 6.9652 17.2501 6.71758 17.2264 6.50837C17.1996 6.27174 17.136 6.00813 16.957 5.76056L16.9564 5.75966C16.7746 5.50903 16.5278 5.31736 16.2537 5.1899L16.2508 5.18857C16.0023 5.07431 15.7468 5.03474 15.5003 5.01694C15.2652 4.99998 14.9793 4.99999 14.6504 5L14.5287 5C14.6173 4.85641 14.6945 4.70561 14.7594 4.54897C14.9183 4.16552 15 3.75454 15 3.3395C15 2.18476 14.0639 1.25 12.9105 1.25H12.6428C11.6766 1.25 10.7501 1.63379 10.0669 2.31694C9.95281 2.43107 9.84703 2.552 9.75001 2.67876ZM11.8395 5C12.0576 5 12.2735 4.95705 12.475 4.8736C12.6764 4.79015 12.8595 4.66784 13.0137 4.51365C13.1678 4.35946 13.2902 4.17641 13.3736 3.97495C13.4571 3.77348 13.5 3.55756 13.5 3.3395C13.5 3.01374 13.2361 2.75 12.9105 2.75H12.6428C12.0745 2.75 11.5294 2.97575 11.1276 3.3776C10.7258 3.77944 10.5 4.32446 10.5 4.89275V5H11.8395ZM15.728 7.87574C15.7302 7.86465 15.7331 7.84744 15.7359 7.82242C15.7489 7.70818 15.75 7.54771 15.75 7.25C15.75 6.9523 15.7489 6.79161 15.7359 6.67725C15.733 6.65163 15.7301 6.63421 15.7278 6.62318C15.7079 6.60198 15.6746 6.57511 15.6231 6.55094C15.609 6.54462 15.5571 6.52494 15.3924 6.51305C15.2178 6.50046 14.9867 6.5 14.625 6.5H4.87501C4.51336 6.5 4.2822 6.50046 4.10765 6.51305C3.93847 6.52526 3.88828 6.54569 3.87581 6.55143L3.86946 6.55435C3.83249 6.57093 3.79935 6.59475 3.77198 6.62434C3.76975 6.63542 3.76689 6.65251 3.76408 6.67725C3.75113 6.79161 3.75001 6.9523 3.75001 7.25C3.75001 7.54771 3.75113 7.70818 3.76408 7.82242C3.76691 7.84744 3.76982 7.86465 3.77206 7.87574C3.79941 7.90529 3.83251 7.92912 3.86945 7.94568L3.87582 7.94854C3.8883 7.95428 3.93847 7.97474 4.10765 7.98694C4.2822 7.99954 4.51336 8 4.87501 8H14.625C14.9867 8 15.2178 7.99954 15.3924 7.98694C15.5615 7.97474 15.6117 7.95431 15.6242 7.94857L15.6306 7.94565C15.6675 7.92909 15.7006 7.90529 15.728 7.87574ZM10.5 9.5L14.6504 9.5C14.7731 9.5 14.8897 9.50001 15 9.49913V11.75C15 13.0087 14.9984 13.8773 14.9106 14.5305C14.8257 15.1623 14.6727 15.4791 14.4509 15.7009C14.2291 15.9227 13.9123 16.0757 13.2806 16.1606C12.6273 16.2484 11.7587 16.25 10.5 16.25V9.5ZM9.00001 9.5L4.84957 9.5C4.72694 9.5 4.61028 9.50001 4.50001 9.49913V11.75C4.50001 13.0087 4.5016 13.8773 4.58942 14.5305C4.67433 15.1623 4.82731 15.4791 5.04909 15.7009C5.27087 15.9227 5.58775 16.0757 6.21946 16.1606C6.87272 16.2484 7.74131 16.25 9.00001 16.25V9.5ZM3.77614 7.89241C3.77613 7.89243 3.77598 7.89204 3.77573 7.89119L3.77614 7.89241ZM3.77607 6.60745C3.77608 6.60746 3.77597 6.6078 3.77575 6.60842L3.77607 6.60745ZM15.7239 6.60745C15.7239 6.60744 15.7241 6.60779 15.7243 6.60855L15.7239 6.60745ZM15.7239 7.89241C15.7239 7.8924 15.724 7.89202 15.7242 7.89132L15.7239 7.89241Z" fill="#C4BCFF" />
</svg>