<svg width="17" height="16" viewBox="0 0 17 16" fill="none" xmlns="http://www.w3.org/2000/svg">
  <path fill-rule="evenodd" clip-rule="evenodd" d="M4.89175 11.3652L4.67003 14.0339C4.66597 14.0804 4.67597 14.1271 4.69875 14.1679C4.72153 14.2087 4.75603 14.2417 4.79778 14.2626C4.83954 14.2836 4.88661 14.2915 4.93292 14.2853C4.97922 14.2792 5.02262 14.2593 5.05748 14.2282L7.58333 11.9835L8.25651 11.9984L8.49995 12.0007C10.4372 12.0007 12.0281 11.4978 13.0945 10.6554C14.1117 9.85312 14.786 8.64391 14.786 6.85752C14.786 5.07114 14.1117 3.86307 13.0945 3.0596C12.0281 2.21727 10.4372 1.71438 8.49995 1.71438C6.5627 1.71438 4.97176 2.21727 3.90541 3.0596C2.88822 3.86307 2.21389 5.07114 2.21389 6.85752C2.21389 8.74105 2.96365 9.99141 4.09742 10.7983L4.89175 11.3652ZM6.19583 15.5083L8.2188 13.7116C8.31023 13.7147 8.40395 13.7158 8.49995 13.715C12.9185 13.715 16.5004 11.4292 16.5004 6.85752C16.5004 2.28584 12.9185 0 8.49995 0C4.08142 0 0.499512 2.28584 0.499512 6.85752C0.499512 9.27708 1.503 11.0566 3.10194 12.195L2.96136 13.8911C2.92911 14.2789 3.01379 14.6675 3.20448 15.0068C3.39518 15.346 3.68314 15.6203 4.03123 15.7944C4.37932 15.9684 4.77157 16.0342 5.15739 15.9832C5.54321 15.9322 5.90491 15.7668 6.19583 15.5083Z" fill="white" />
</svg>