<svg width="16" height="16" viewBox="0 0 16 16" fill="none" xmlns="http://www.w3.org/2000/svg">
	<g opacity="0.5">
		<path d="M8.96991 4.97004C9.11078 4.83593 9.29824 4.76179 9.49273 4.76326C9.68722 4.76473 9.87354 4.8417 10.0124 4.97793C10.1512 5.11416 10.2317 5.29899 10.2368 5.49342C10.2419 5.68785 10.1713 5.87667 10.0399 6.02004L6.04991 11.01C5.9813 11.0839 5.8985 11.1432 5.80645 11.1844C5.71439 11.2256 5.61498 11.2478 5.51416 11.2496C5.41334 11.2515 5.31318 11.233 5.21967 11.1953C5.12616 11.1575 5.04121 11.1013 4.96991 11.03L2.32391 8.38404C2.25023 8.31538 2.19112 8.23258 2.15013 8.14058C2.10914 8.04858 2.0871 7.94927 2.08532 7.84857C2.08355 7.74786 2.10207 7.64783 2.13979 7.55445C2.17751 7.46106 2.23366 7.37622 2.30488 7.305C2.37609 7.23379 2.46093 7.17764 2.55432 7.13992C2.6477 7.1022 2.74773 7.08367 2.84844 7.08545C2.94914 7.08723 3.04845 7.10927 3.14045 7.15026C3.23245 7.19125 3.31525 7.25036 3.38391 7.32404L5.47791 9.41704L8.94991 4.99204L8.96991 4.97004ZM8.04991 10.11L8.96991 11.03C9.0412 11.1012 9.12608 11.1573 9.2195 11.1949C9.31292 11.2325 9.41296 11.251 9.51366 11.2491C9.61436 11.2472 9.71365 11.2251 9.80561 11.184C9.89757 11.143 9.98032 11.0838 10.0489 11.01L14.0409 6.02004C14.1126 5.94924 14.1693 5.86472 14.2077 5.77152C14.246 5.67832 14.2651 5.57835 14.2639 5.47758C14.2628 5.37682 14.2413 5.27732 14.2008 5.18504C14.1603 5.09276 14.1017 5.00958 14.0283 4.94047C13.955 4.87137 13.8685 4.81775 13.7739 4.78282C13.6794 4.74789 13.5788 4.73237 13.4782 4.73718C13.3775 4.742 13.2789 4.76705 13.1881 4.81084C13.0973 4.85462 13.0163 4.91625 12.9499 4.99204L9.47691 9.41704L8.99191 8.93104L8.04991 10.11Z" fill="white" />
	</g>
</svg>