<svg width="20" height="20" viewBox="0 0 20 20" fill="none" xmlns="http://www.w3.org/2000/svg">
<path d="M9.33354 2.78868L9.33348 2.78872L4.08854 5.81618C4.08852 5.81619 4.0885 5.8162 4.08848 5.81622C3.88574 5.93328 3.7174 6.10166 3.60038 6.30443C3.48335 6.50722 3.42179 6.73725 3.42188 6.97138L3.42188 6.97166L3.42188 13.0275C3.42188 13.0275 3.42188 13.0275 3.42188 13.0275C3.42188 13.2615 3.4835 13.4914 3.60052 13.6941L2.96022 14.0638L3.60052 13.6941C3.71754 13.8968 3.88586 14.0651 4.08854 14.1821L4.08855 14.1821L9.33354 17.2105C9.33355 17.2105 9.33355 17.2105 9.33355 17.2105C9.53624 17.3275 9.76616 17.3891 10.0002 17.3891C10.2343 17.3891 10.4642 17.3275 10.6669 17.2105C10.6669 17.2105 10.6669 17.2105 10.6669 17.2105L15.9119 14.1821L15.9119 14.1821C16.1146 14.0651 16.2829 13.8968 16.3999 13.6941C16.5169 13.4914 16.5785 13.2615 16.5785 13.0275L9.33354 2.78868ZM9.33354 2.78868C9.53623 2.67165 9.76616 2.61005 10.0002 2.61005C10.2343 2.61005 10.4642 2.67165 10.6669 2.78868L10.6669 2.78872M9.33354 2.78868L10.6669 2.78872M10.6669 2.78872L15.9119 5.81618M10.6669 2.78872L15.9119 5.81618M15.9119 5.81618C15.9119 5.81619 15.9119 5.8162 15.9119 5.81622M15.9119 5.81618L15.9119 5.81622M15.9119 5.81622C16.1146 5.93324 16.2829 6.10153 16.3999 6.3042M15.9119 5.81622L16.3999 6.3042M16.3999 6.3042C16.5169 6.50688 16.5785 6.73679 16.5785 6.97083M16.3999 6.3042L16.5785 6.97083M16.5785 6.97083C16.5785 6.97083 16.5785 6.97084 16.5785 6.97085M16.5785 6.97083V6.97085M16.5785 6.97085V13.0275V6.97085ZM10.0002 6.74999C9.13825 6.74999 8.3116 7.0924 7.70211 7.7019C7.09262 8.31139 6.75021 9.13804 6.75021 9.99999C6.75021 10.8619 7.09262 11.6886 7.70211 12.2981C8.3116 12.9076 9.13825 13.25 10.0002 13.25C10.8622 13.25 11.6888 12.9076 12.2983 12.2981C12.9078 11.6886 13.2502 10.8619 13.2502 9.99999C13.2502 9.13804 12.9078 8.31139 12.2983 7.7019C11.6888 7.0924 10.8622 6.74999 10.0002 6.74999Z" stroke="#BFC5D5" stroke-width="1.5"/>
</svg>
