<svg width="20" height="20" viewBox="0 0 20 20" fill="none" xmlns="http://www.w3.org/2000/svg">
<path fill-rule="evenodd" clip-rule="evenodd" d="M9.61206 3.35659C6.49028 3.35659 3.95958 5.88729 3.95958 9.00907C3.95958 11.0644 5.05617 12.8643 6.69944 13.8545C7.02031 14.0478 7.12369 14.4646 6.93035 14.7855C6.81391 14.9787 6.61642 15.0931 6.40764 15.1113C5.10821 15.6822 4.01052 16.5884 3.23615 17.7076C3.02301 18.0156 2.60048 18.0926 2.29242 17.8794C1.98436 17.6663 1.90741 17.2438 2.12056 16.9357C2.86426 15.8608 3.85414 14.9577 5.01165 14.2971C3.53661 13.0128 2.60299 11.1202 2.60299 9.00907C2.60299 5.13807 5.74106 2 9.61206 2C13.4831 2 16.6211 5.13807 16.6211 9.00907C16.6211 11.1202 15.6875 13.0128 14.2125 14.2971C15.37 14.9577 16.3598 15.8608 17.1035 16.9357C17.3167 17.2438 17.2398 17.6663 16.9317 17.8794C16.6236 18.0926 16.2011 18.0156 15.988 17.7076C15.2136 16.5884 14.1159 15.6822 12.8165 15.1113C12.6077 15.0931 12.4102 14.9787 12.2938 14.7855C12.1004 14.4646 12.2038 14.0478 12.5247 13.8545C14.1679 12.8643 15.2645 11.0644 15.2645 9.00907C15.2645 5.88729 12.7338 3.35659 9.61206 3.35659ZM6.44667 8.78297C6.82128 8.78297 7.12497 9.08665 7.12497 9.46126C7.12497 10.8348 8.23848 11.9484 9.61206 11.9484C10.9856 11.9484 12.0991 10.8348 12.0991 9.46126C12.0991 9.08665 12.4028 8.78297 12.7774 8.78297C13.1521 8.78297 13.4557 9.08665 13.4557 9.46126C13.4557 11.5841 11.7349 13.3049 9.61206 13.3049C7.48925 13.3049 5.76838 11.5841 5.76838 9.46126C5.76838 9.08665 6.07206 8.78297 6.44667 8.78297Z" fill="#BFC5D5"/>
</svg>
