<svg width="20" height="20" viewBox="0 0 20 20" fill="none" xmlns="http://www.w3.org/2000/svg">
<path d="M15.4126 10.105C15.4126 10.3203 15.327 10.5269 15.1747 10.6792C15.0225 10.8314 14.8159 10.917 14.6006 10.917C14.3852 10.917 14.1787 10.8314 14.0264 10.6792C13.8741 10.5269 13.7886 10.3203 13.7886 10.105C13.7886 9.88963 13.8741 9.68309 14.0264 9.53081C14.1787 9.37853 14.3852 9.29298 14.6006 9.29298C14.8159 9.29298 15.0225 9.37853 15.1747 9.53081C15.327 9.68309 15.4126 9.88963 15.4126 10.105Z" fill="#BFC5D5"/>
<path fill-rule="evenodd" clip-rule="evenodd" d="M8.05953 3H10.5865C12.0789 3 13.2612 3 14.1861 3.12424C15.1377 3.25253 15.9083 3.52212 16.5165 4.12949C17.2668 4.88059 17.5063 5.88585 17.5932 7.19073C18.0617 7.39617 18.4158 7.83221 18.4539 8.38437C18.458 8.4339 18.458 8.48668 18.458 8.5354V11.6746C18.458 11.7233 18.458 11.7761 18.4548 11.8248C18.4158 12.377 18.0617 12.8138 17.5932 13.0201C17.5063 14.3242 17.2668 15.3294 16.5165 16.0805C15.9083 16.6879 15.1377 16.9575 14.1861 17.0858C13.2604 17.21 12.0789 17.21 10.5865 17.21H8.05953C6.56707 17.21 5.3848 17.21 4.45993 17.0858C3.50827 16.9575 2.73768 16.6879 2.12949 16.0805C1.52212 15.4723 1.25253 14.7017 1.12424 13.7501C1 12.8244 1 11.6429 1 10.1505V10.0595C1 8.56707 1 7.3848 1.12424 6.45993C1.25253 5.50827 1.52212 4.73768 2.12949 4.12949C2.73768 3.52212 3.50827 3.25253 4.45993 3.12424C5.38561 3 6.56707 3 8.05953 3ZM16.3614 13.15H14.7878C13.046 13.15 11.5552 11.8281 11.5552 10.105C11.5552 8.38194 13.046 7.06 14.7869 7.06H16.3606C16.268 5.97111 16.0594 5.3954 15.6542 4.99102C15.3107 4.64755 14.8397 4.4413 14.0229 4.33168C13.1889 4.21962 12.0887 4.218 10.5402 4.218H8.10419C6.5557 4.218 5.45626 4.21962 4.62071 4.33168C3.80465 4.4413 3.33369 4.64755 2.99021 4.99102C2.64674 5.3345 2.44049 5.80546 2.33087 6.62233C2.21881 7.45707 2.21719 8.55652 2.21719 10.105C2.21719 11.6535 2.21881 12.7537 2.33087 13.5885C2.44049 14.4045 2.64674 14.8755 2.99021 15.219C3.33369 15.5625 3.80465 15.7687 4.62152 15.8783C5.45626 15.9904 6.5557 15.992 8.10419 15.992H10.5402C12.0887 15.992 13.1889 15.9904 14.0237 15.8783C14.8397 15.7687 15.3107 15.5625 15.6542 15.219C16.0594 14.8146 16.2688 14.2397 16.3614 13.15ZM4.248 6.857C4.248 6.69548 4.31216 6.54058 4.42637 6.42637C4.54058 6.31216 4.69548 6.248 4.857 6.248H8.105C8.26652 6.248 8.42142 6.31216 8.53563 6.42637C8.64984 6.54058 8.714 6.69548 8.714 6.857C8.714 7.01852 8.64984 7.17342 8.53563 7.28763C8.42142 7.40184 8.26652 7.466 8.105 7.466H4.857C4.69548 7.466 4.54058 7.40184 4.42637 7.28763C4.31216 7.17342 4.248 7.01852 4.248 6.857ZM16.9753 8.278H14.7878C13.6315 8.278 12.7732 9.13791 12.7732 10.105C12.7732 11.0721 13.6315 11.932 14.7869 11.932H16.994C17.1612 11.9214 17.2335 11.8086 17.2392 11.7404V8.46963C17.2335 8.40142 17.1612 8.28856 16.994 8.27881L16.9753 8.278Z" fill="#BFC5D5"/>
</svg>
