<svg width="20" height="21" viewBox="0 0 20 21" fill="none" xmlns="http://www.w3.org/2000/svg">
<path d="M5.74937 2.23375C5.89867 2.08426 6.10123 2.00019 6.3125 2H12.6875C12.8989 2 13.1008 2.08394 13.2506 2.23375L17.7663 6.74937C17.9161 6.89812 18 7.10106 18 7.3125V13.6875C17.9998 13.8988 17.9157 14.1013 17.7663 14.2506L13.2506 18.7663C13.1013 18.9157 12.8988 18.9998 12.6875 19H6.3125C6.10123 18.9998 5.89867 18.9157 5.74937 18.7663L1.23375 14.2506C1.08426 14.1013 1.00019 13.8988 1 13.6875V7.3125C1 7.10106 1.08394 6.89919 1.23375 6.74937L5.74937 2.23375ZM6.64187 3.59375L2.59375 7.64187V13.3581L6.64187 17.4062H12.3581L16.4062 13.3581V7.64187L12.3581 3.59375H6.64187ZM9.5 6.25C9.71134 6.25 9.91403 6.33396 10.0635 6.4834C10.2129 6.63284 10.2969 6.83553 10.2969 7.04688V10.7656C10.2969 10.977 10.2129 11.1797 10.0635 11.3291C9.91403 11.4785 9.71134 11.5625 9.5 11.5625C9.28866 11.5625 9.08597 11.4785 8.93652 11.3291C8.78708 11.1797 8.70312 10.977 8.70312 10.7656V7.04688C8.70312 6.83553 8.78708 6.63284 8.93652 6.4834C9.08597 6.33396 9.28866 6.25 9.5 6.25ZM9.5 14.75C9.21821 14.75 8.94796 14.6381 8.7487 14.4388C8.54944 14.2395 8.4375 13.9693 8.4375 13.6875C8.4375 13.4057 8.54944 13.1355 8.7487 12.9362C8.94796 12.7369 9.21821 12.625 9.5 12.625C9.78179 12.625 10.052 12.7369 10.2513 12.9362C10.4506 13.1355 10.5625 13.4057 10.5625 13.6875C10.5625 13.9693 10.4506 14.2395 10.2513 14.4388C10.052 14.6381 9.78179 14.75 9.5 14.75Z" fill="#BFC5D5"/>
</svg>
