<svg width="20" height="21" viewBox="0 0 20 21" fill="none" xmlns="http://www.w3.org/2000/svg">
<path d="M9.16732 6.33325H14.1673M5.83398 6.33325H6.66732M5.83398 10.4999H6.66732M5.83398 14.6666H6.66732M9.16732 10.4999H14.1673M9.16732 14.6666H14.1673M2.08398 10.4999C2.08398 6.76825 2.08398 4.90159 3.24315 3.74242C4.40232 2.58325 6.26815 2.58325 10.0007 2.58325C13.7323 2.58325 15.599 2.58325 16.7582 3.74242C17.9173 4.90159 17.9173 6.76742 17.9173 10.4999C17.9173 14.2316 17.9173 16.0983 16.7582 17.2574C15.599 18.4166 13.7332 18.4166 10.0007 18.4166C6.26898 18.4166 4.40232 18.4166 3.24315 17.2574C2.08398 16.0983 2.08398 14.2324 2.08398 10.4999Z" stroke="#BFC5D5" stroke-width="1.5" stroke-linecap="round" stroke-linejoin="round"/>
</svg>
