<svg width="20" height="21" viewBox="0 0 20 21" fill="none" xmlns="http://www.w3.org/2000/svg">
<path d="M5.83333 8.00008L8.95833 10.5001C9.25394 10.7368 9.62132 10.8657 10 10.8657C10.3787 10.8657 10.7461 10.7368 11.0417 10.5001L14.1667 8.00008M17.5 14.6667V6.33341C17.5 5.89139 17.3244 5.46746 17.0118 5.1549C16.6993 4.84234 16.2754 4.66675 15.8333 4.66675H4.16667C3.72464 4.66675 3.30072 4.84234 2.98816 5.1549C2.67559 5.46746 2.5 5.89139 2.5 6.33341V14.6667C2.5 15.1088 2.67559 15.5327 2.98816 15.8453C3.30072 16.1578 3.72464 16.3334 4.16667 16.3334H15.8333C16.2754 16.3334 16.6993 16.1578 17.0118 15.8453C17.3244 15.5327 17.5 15.1088 17.5 14.6667Z" stroke="#BFC5D5" stroke-width="1.6" stroke-linecap="round" stroke-linejoin="round"/>
</svg>
