<svg width="20" height="21" viewBox="0 0 20 21" fill="none" xmlns="http://www.w3.org/2000/svg">
<path d="M15.5993 12.7999C15.891 12.0916 16.0493 11.3332 16.0493 10.4999C16.0493 9.89992 15.9577 9.32491 15.7993 8.79158C15.2577 8.91658 14.691 8.98325 14.0993 8.98325C12.8877 8.98455 11.6934 8.69452 10.6173 8.1376C9.54117 7.58068 8.61471 6.77321 7.91602 5.78325C7.16931 7.5922 5.75911 9.04712 3.97435 9.84992C3.94102 10.0582 3.94102 10.2832 3.94102 10.4999C3.94102 11.2955 4.09772 12.0833 4.40218 12.8183C4.70664 13.5534 5.15289 14.2212 5.71546 14.7838C6.85162 15.92 8.39258 16.5582 9.99935 16.5582C10.8743 16.5582 11.716 16.3666 12.4743 16.0249C12.9493 16.9332 13.166 17.3832 13.1493 17.3832C11.7827 17.8416 10.7243 18.0666 9.99935 18.0666C7.98268 18.0666 6.05768 17.2749 4.64102 15.8499C3.77856 14.9915 3.13791 13.9362 2.77435 12.7749H1.66602V8.98325H2.57435C2.84955 7.64368 3.48226 6.40359 4.40534 5.39457C5.32842 4.38556 6.50744 3.64525 7.81729 3.25221C9.12714 2.85917 10.519 2.82806 11.8451 3.16217C13.1712 3.49628 14.3821 4.18316 15.3493 5.14991C16.3992 6.19623 17.1154 7.53015 17.4077 8.98325H18.3327V12.7749H18.2827L15.316 15.4999L10.8993 14.9999V13.6082H14.9243L15.5993 12.7999ZM7.72435 10.3082C7.97435 10.3082 8.21602 10.4082 8.39102 10.5916C8.56689 10.7689 8.66557 11.0085 8.66557 11.2582C8.66557 11.508 8.56689 11.7476 8.39102 11.9249C8.21602 12.0999 7.97435 12.1999 7.72435 12.1999C7.19935 12.1999 6.77435 11.7832 6.77435 11.2582C6.77435 10.7332 7.19935 10.3082 7.72435 10.3082ZM12.266 10.3082C12.791 10.3082 13.2077 10.7332 13.2077 11.2582C13.2077 11.7832 12.791 12.1999 12.266 12.1999C11.741 12.1999 11.316 11.7832 11.316 11.2582C11.316 11.0063 11.4161 10.7647 11.5943 10.5865C11.7724 10.4083 12.0141 10.3082 12.266 10.3082Z" fill="#BFC5D5"/>
</svg>
