<svg width="20" height="21" viewBox="0 0 20 21" fill="none" xmlns="http://www.w3.org/2000/svg">
<path d="M3.33398 10.4999C3.33398 8.73181 4.03636 7.03612 5.28661 5.78587C6.53685 4.53563 8.23254 3.83325 10.0007 3.83325C11.7688 3.83325 13.4645 4.53563 14.7147 5.78587C15.9649 7.03612 16.6673 8.73181 16.6673 10.4999V14.7416C16.6673 15.4483 16.6673 15.7999 16.5623 16.0824C16.4788 16.3063 16.3482 16.5096 16.1792 16.6785C16.0103 16.8474 15.807 16.9781 15.5832 17.0616C15.3007 17.1666 14.9482 17.1666 14.2423 17.1666H10.0007C8.23254 17.1666 6.53685 16.4642 5.28661 15.214C4.03636 13.9637 3.33398 12.268 3.33398 10.4999Z" stroke="#BFC5D5" stroke-width="1.6"/>
<path d="M7.5 9.6665H12.5M10 12.9998H12.5" stroke="#BFC5D5" stroke-width="1.6" stroke-linecap="round" stroke-linejoin="round"/>
</svg>
