<svg width="20" height="21" viewBox="0 0 20 21" fill="none" xmlns="http://www.w3.org/2000/svg">
<path d="M10.0007 2.16334C11.6229 2.1612 13.1822 2.7907 14.3482 3.91847C15.5142 5.04623 16.1954 6.58365 16.2474 8.205L16.2507 8.41334V11.8275L17.4007 14.4575C17.4699 14.616 17.4985 14.7892 17.484 14.9615C17.4695 15.1338 17.4123 15.2998 17.3177 15.4445C17.223 15.5892 17.0938 15.708 16.9417 15.7903C16.7896 15.8726 16.6194 15.9157 16.4465 15.9158L12.5007 15.9183C12.5015 16.5692 12.2486 17.1947 11.7955 17.6619C11.3424 18.1292 10.725 18.4013 10.0745 18.4205C9.42393 18.4397 8.79154 18.2045 8.3117 17.7648C7.83186 17.3251 7.54241 16.7156 7.50486 16.0658L7.50069 15.9158H3.56319C3.39046 15.9158 3.22043 15.8729 3.06842 15.7909C2.91641 15.7088 2.78719 15.5903 2.69239 15.4459C2.59759 15.3015 2.54018 15.1358 2.52534 14.9637C2.51049 14.7916 2.53868 14.6185 2.60736 14.46L3.75069 11.8283V8.41334C3.75069 4.95084 6.54403 2.16334 10.0007 2.16334ZM11.2507 15.9167L8.75069 15.9183C8.75064 16.2394 8.87414 16.5482 9.0956 16.7807C9.31707 17.0132 9.6195 17.1515 9.94021 17.1671C10.2609 17.1826 10.5753 17.0742 10.8182 16.8642C11.0611 16.6542 11.2139 16.3588 11.2449 16.0392L11.2507 15.9167ZM10.0007 3.41334C7.23403 3.41334 5.00069 5.64167 5.00069 8.41334V12.0883L3.88069 14.6667H16.1282L15.0007 12.0892V8.42417L14.9982 8.23667C14.9545 6.94118 14.4085 5.7135 13.4759 4.81332C12.5432 3.91315 11.2969 3.41108 10.0007 3.41334Z" fill="#BFC5D5"/>
</svg>
