<svg width="20" height="21" viewBox="0 0 20 21" fill="none" xmlns="http://www.w3.org/2000/svg">
<path d="M13.1562 2.5C13.9805 2.50187 14.7951 2.67813 15.5465 3.01721C16.2978 3.35629 16.9689 3.85051 17.5156 4.4674C18.0623 5.08429 18.4723 5.80989 18.7187 6.59652C18.965 7.38314 19.0422 8.213 18.945 9.03155C18.8478 9.8501 18.5785 10.6388 18.1548 11.3459C17.7311 12.053 17.1626 12.6624 16.4866 13.1341C15.8106 13.6058 15.0424 13.9291 14.2326 14.0829C13.4228 14.2366 12.5896 14.2172 11.7877 14.026L10.7975 15.0162C10.6482 15.1657 10.4456 15.2498 10.2344 15.25H9.4375V16.0469C9.43731 16.2581 9.35324 16.4607 9.20375 16.61L8.6725 17.1413C8.5232 17.2907 8.32065 17.3748 8.10937 17.375H7.3125V18.1719C7.31231 18.3831 7.22824 18.5857 7.07875 18.735L6.5475 19.2663C6.3982 19.4157 6.19565 19.4998 5.98437 19.5H3.85937C3.36624 19.5 2.8933 19.3041 2.5446 18.9554C2.1959 18.6067 2 18.1338 2 17.6406V15.5156C2 15.3042 2.08394 15.1023 2.23375 14.9525L7.474 9.71225C7.26701 8.85293 7.25764 7.95784 7.44662 7.09438C7.63559 6.23092 8.01798 5.42157 8.56499 4.72727C9.11201 4.03296 9.8094 3.47179 10.6047 3.086C11.3999 2.70021 12.2723 2.49985 13.1562 2.5ZM8.90625 8.34375C8.90519 8.80169 8.97956 9.2575 9.12406 9.69206C9.17099 9.83251 9.17786 9.98326 9.14389 10.1274C9.10992 10.2715 9.03646 10.4033 8.93175 10.5081L3.59375 15.845V17.6406C3.59375 17.7873 3.71275 17.9062 3.85937 17.9062H5.655L5.71875 17.8425V16.5781C5.71875 16.3668 5.80271 16.1641 5.95215 16.0146C6.10159 15.8652 6.30428 15.7812 6.51562 15.7812H7.78L7.84375 15.7175V14.4531C7.84375 14.2418 7.92771 14.0391 8.07715 13.8896C8.22659 13.7402 8.42928 13.6562 8.64062 13.6562H9.905L10.9919 12.5672C11.0968 12.4627 11.2286 12.3894 11.3728 12.3556C11.5169 12.3218 11.6676 12.3289 11.8079 12.3759C12.6605 12.6611 13.5816 12.6687 14.4387 12.3974C15.2958 12.1261 16.0448 11.59 16.578 10.8662C17.1112 10.1424 17.4012 9.26816 17.4062 8.36916C17.4112 7.47016 17.131 6.59273 16.6059 5.86303C16.0808 5.13332 15.3378 4.58893 14.4837 4.30812C13.6297 4.02732 12.7086 4.02456 11.8529 4.30026C10.9972 4.57595 10.251 5.11589 9.72153 5.84245C9.19206 6.569 8.90662 7.44474 8.90625 8.34375ZM13.6875 8.875C13.4057 8.875 13.1355 8.76306 12.9362 8.5638C12.7369 8.36454 12.625 8.09429 12.625 7.8125C12.625 7.53071 12.7369 7.26046 12.9362 7.0612C13.1355 6.86194 13.4057 6.75 13.6875 6.75C13.9693 6.75 14.2395 6.86194 14.4388 7.0612C14.6381 7.26046 14.75 7.53071 14.75 7.8125C14.75 8.09429 14.6381 8.36454 14.4388 8.5638C14.2395 8.76306 13.9693 8.875 13.6875 8.875Z" fill="#BFC5D5"/>
</svg>
