<svg width="20" height="21" viewBox="0 0 20 21" fill="none" xmlns="http://www.w3.org/2000/svg">
<path d="M12.9947 10.7952C12.7103 11.0305 12.4668 11.293 12.2644 11.5829C11.8104 11.3532 11.3373 11.1836 10.845 11.0742C10.3527 10.9648 9.84944 10.9074 9.33526 10.9019C8.7445 10.9019 8.1811 10.9758 7.64504 11.1234C7.10898 11.2711 6.60574 11.479 6.13532 11.747C5.6649 12.0151 5.24371 12.3405 4.87175 12.7234C4.49979 13.1063 4.17432 13.5302 3.89535 13.9952C3.61638 14.4601 3.40852 14.9661 3.27177 15.5131C3.13502 16.0601 3.06118 16.6235 3.05024 17.2034H2C2 16.4047 2.1176 15.6362 2.35281 14.8977C2.58802 14.1593 2.92716 13.4838 3.37023 12.8711C3.8133 12.2585 4.34116 11.7224 4.9538 11.2629C5.56644 10.8035 6.26113 10.4506 7.03787 10.2045C6.74249 10.0076 6.47993 9.78057 6.25019 9.52348C6.02045 9.26639 5.82353 8.98742 5.65943 8.68657C5.49533 8.38572 5.36952 8.06846 5.282 7.73479C5.19448 7.40112 5.15072 7.05651 5.15072 6.70096C5.15072 6.12114 5.26012 5.57687 5.47892 5.06816C5.69772 4.55945 5.99857 4.11638 6.38147 3.73895C6.76437 3.36152 7.21017 3.06067 7.71888 2.8364C8.22759 2.61213 8.77185 2.5 9.35167 2.5C9.93149 2.5 10.4758 2.6094 10.9845 2.8282C11.4932 3.047 11.9362 3.34785 12.3137 3.73075C12.6911 4.11365 12.992 4.55945 13.2162 5.06816C13.4405 5.57687 13.5526 6.12114 13.5526 6.70096C13.5526 7.05651 13.5089 7.40112 13.4214 7.73479C13.3338 8.06846 13.2108 8.38845 13.0521 8.69477C12.8935 9.00109 12.6938 9.28006 12.4532 9.53168C12.2125 9.7833 11.9472 10.0103 11.6573 10.2127C11.8925 10.2893 12.1195 10.3741 12.3383 10.4671C12.5571 10.56 12.7759 10.6694 12.9947 10.7952ZM6.20096 6.70096C6.20096 7.13856 6.28301 7.54607 6.44711 7.9235C6.61121 8.30093 6.83548 8.6346 7.11992 8.92451C7.40436 9.21442 7.73803 9.44143 8.12093 9.60553C8.50383 9.76963 8.91407 9.85168 9.35167 9.85168C9.7838 9.85168 10.1913 9.76963 10.5742 9.60553C10.9571 9.44143 11.2908 9.21716 11.5752 8.93272C11.8597 8.64828 12.0867 8.31461 12.2562 7.93171C12.4258 7.54881 12.5079 7.13856 12.5024 6.70096C12.5024 6.26883 12.4203 5.86131 12.2562 5.47841C12.0921 5.09551 11.8679 4.76184 11.5834 4.4774C11.299 4.19296 10.9626 3.96596 10.5742 3.79639C10.1858 3.62682 9.77833 3.54477 9.35167 3.55024C8.91407 3.55024 8.50656 3.63229 8.12913 3.79639C7.7517 3.96049 7.41803 4.18476 7.12812 4.4692C6.83821 4.75364 6.61121 5.09004 6.44711 5.47841C6.28301 5.86678 6.20096 6.2743 6.20096 6.70096ZM15.1444 10.8937C15.5054 10.8937 15.8473 10.9621 16.17 11.0988C16.4928 11.2356 16.7717 11.4243 17.0069 11.665C17.2421 11.9057 17.4309 12.1846 17.5731 12.5019C17.7153 12.8191 17.7864 13.161 17.7864 13.5275C17.7864 13.8885 17.718 14.2277 17.5813 14.5449C17.4445 14.8622 17.2558 15.1412 17.0151 15.3818C16.7745 15.6225 16.4928 15.8112 16.17 15.948C15.8473 16.0847 15.5054 16.1558 15.1444 16.1613C14.6138 16.1613 14.1297 16.0136 13.6921 15.7182L11.2963 18.1141C11.1923 18.218 11.0693 18.27 10.927 18.27C10.7848 18.27 10.6617 18.218 10.5578 18.1141C10.4539 18.0102 10.4019 17.8871 10.4019 17.7449C10.4019 17.6027 10.4539 17.4796 10.5578 17.3757L12.9537 14.9798C12.6583 14.5422 12.5106 14.0581 12.5106 13.5275C12.5106 13.1665 12.579 12.8274 12.7157 12.5101C12.8525 12.1928 13.0412 11.9139 13.2819 11.6732C13.5225 11.4325 13.8015 11.2438 14.1188 11.107C14.436 10.9703 14.7779 10.8992 15.1444 10.8937ZM15.1444 15.1111C15.3632 15.1111 15.5683 15.0701 15.7598 14.988C15.9512 14.906 16.1181 14.7938 16.2603 14.6516C16.4025 14.5094 16.5174 14.3398 16.6049 14.1429C16.6924 13.946 16.7362 13.7408 16.7362 13.5275C16.7362 13.3087 16.6951 13.1036 16.6131 12.9121C16.531 12.7207 16.4162 12.5539 16.2685 12.4116C16.1208 12.2694 15.954 12.1545 15.768 12.067C15.582 11.9795 15.3741 11.9385 15.1444 11.9439C14.9256 11.9439 14.7205 11.985 14.529 12.067C14.3376 12.1491 14.1707 12.2639 14.0285 12.4116C13.8863 12.5593 13.7714 12.7262 13.6839 12.9121C13.5964 13.0981 13.5554 13.3032 13.5608 13.5275C13.5608 13.7463 13.6019 13.9514 13.6839 14.1429C13.766 14.3343 13.8781 14.5012 14.0203 14.6434C14.1625 14.7856 14.3321 14.9005 14.529 14.988C14.7259 15.0755 14.9311 15.1165 15.1444 15.1111Z" fill="#BFC5D5"/>
</svg>
