<svg width="443" height="70" viewBox="0 0 443 70" fill="none" xmlns="http://www.w3.org/2000/svg">
<path d="M425.593 69.5C427.006 69.5 428.774 68.9779 430.651 67.989C432.521 67.0039 434.465 65.5731 436.227 63.7995C439.756 60.2462 442.5 55.3706 442.5 50.0194V32.2892C442.5 28.5396 439.46 25.5 435.711 25.5C427.887 25.5 421.544 19.1571 421.544 11.3328V8.00615C421.544 3.89397 418.231 0.548088 414.121 0.523705C410.126 0.5 407.636 0.5 407.148 0.5H17.4068C15.9941 0.5 14.2266 1.02321 12.3496 2.01389C10.4799 3.00072 8.53493 4.43394 6.77326 6.20998C3.24389 9.76815 0.5 14.6487 0.5 20V50C0.5 55.3513 3.24389 60.2318 6.77327 63.79C8.53493 65.5661 10.4799 66.9993 12.3496 67.9861C14.2267 68.9768 15.9941 69.5 17.4068 69.5H425.593Z" fill="#FFE19C" fill-opacity="0.3" stroke="#FFD788"/>
</svg>
