<svg width="328" height="80" viewBox="0 0 328 80" fill="none" xmlns="http://www.w3.org/2000/svg">
<path d="M310.112 79.5C311.096 79.5 312.678 78.9247 314.55 77.7806C316.398 76.6505 318.459 75.0081 320.385 72.9728C324.244 68.8936 327.5 63.3018 327.5 57.165V35.7075C327.5 32.0425 324.529 29.0714 320.864 29.0714C313.198 29.0714 306.984 22.8571 306.984 15.1913V7.97429C306.984 3.87776 303.696 0.537552 299.606 0.511375C297.827 0.5 296.725 0.5 296.455 0.5H17.8881C16.9046 0.5 15.3222 1.07645 13.4508 2.22261C11.6022 3.3548 9.54123 4.99995 7.61557 7.03809C3.75625 11.1228 0.5 16.7203 0.5 22.8571V57.1429C0.5 63.2797 3.75625 68.8772 7.61558 72.9619C9.54123 75 11.6022 76.6452 13.4508 77.7774C15.3222 78.9236 16.9046 79.5 17.8881 79.5H310.112Z" fill="#FFE19C" fill-opacity="0.3" stroke="#FFD788"/>
</svg>
