<svg width="560" height="70" viewBox="0 0 560 70" fill="none" xmlns="http://www.w3.org/2000/svg">
<path d="M543.052 69.5C546.722 69.5 550.833 67.361 554.044 63.8162C557.247 60.2809 559.5 55.4019 559.5 50.0194V32.4555C559.5 28.6141 556.386 25.5 552.544 25.5C544.548 25.5 538.065 19.0175 538.065 11.0209V8.02333C538.065 3.90508 534.742 0.556786 530.626 0.534256C524.366 0.5 520.434 0.5 519.736 0.5H16.9477C13.2789 0.5 9.16711 2.64353 5.95598 6.19329C2.75346 9.73352 0.5 14.6174 0.5 20V50C0.5 55.3826 2.75346 60.2665 5.95598 63.8067C9.16712 67.3565 13.2789 69.5 16.9477 69.5H543.052Z" fill="#FFE19C" fill-opacity="0.3" stroke="#FFD788"/>
</svg>
