<svg width="192" height="193" viewBox="0 0 192 193" fill="none" xmlns="http://www.w3.org/2000/svg">
<rect x="0.815674" y="0.0986938" width="190.92" height="192.099" rx="29" fill="#F5F5F5"/>
<path d="M59.4503 125V114.395H63.8003C64.2903 114.395 64.7403 114.44 65.1503 114.53C65.5703 114.61 65.9303 114.755 66.2303 114.965C66.5403 115.175 66.7803 115.455 66.9503 115.805C67.1203 116.155 67.2053 116.59 67.2053 117.11C67.2053 117.59 67.0953 118.03 66.8753 118.43C66.6553 118.82 66.3303 119.115 65.9003 119.315C66.4803 119.465 66.9253 119.76 67.2353 120.2C67.5453 120.63 67.7003 121.19 67.7003 121.88C67.7003 122.49 67.5853 123 67.3553 123.41C67.1353 123.81 66.8253 124.13 66.4253 124.37C66.0353 124.6 65.5853 124.765 65.0753 124.865C64.5653 124.955 64.0253 125 63.4553 125H59.4503ZM61.3253 123.29H63.5603C63.8403 123.29 64.1153 123.27 64.3853 123.23C64.6553 123.19 64.9003 123.12 65.1203 123.02C65.3403 122.92 65.5103 122.775 65.6303 122.585C65.7603 122.385 65.8253 122.13 65.8253 121.82C65.8253 121.54 65.7753 121.31 65.6753 121.13C65.5753 120.95 65.4353 120.81 65.2553 120.71C65.0853 120.6 64.8803 120.525 64.6403 120.485C64.4003 120.435 64.1503 120.41 63.8903 120.41H61.3253V123.29ZM61.3253 118.835H63.3053C63.6153 118.835 63.8953 118.805 64.1453 118.745C64.3953 118.685 64.6103 118.595 64.7903 118.475C64.9703 118.355 65.1103 118.205 65.2103 118.025C65.3103 117.835 65.3603 117.61 65.3603 117.35C65.3603 117 65.2803 116.74 65.1203 116.57C64.9703 116.39 64.7603 116.27 64.4903 116.21C64.2203 116.14 63.9203 116.105 63.5903 116.105H61.3253V118.835ZM72.6795 125.105C71.8595 125.105 71.1695 124.94 70.6095 124.61C70.0495 124.27 69.6245 123.795 69.3345 123.185C69.0445 122.575 68.8995 121.87 68.8995 121.07C68.8995 120.27 69.0495 119.565 69.3495 118.955C69.6495 118.335 70.0895 117.85 70.6695 117.5C71.2495 117.15 71.9545 116.975 72.7845 116.975C73.3945 116.975 73.9345 117.08 74.4045 117.29C74.8845 117.5 75.2695 117.81 75.5595 118.22C75.8595 118.62 76.0495 119.12 76.1295 119.72H74.3295C74.2095 119.34 74.0095 119.065 73.7295 118.895C73.4595 118.715 73.1295 118.625 72.7395 118.625C72.2395 118.625 71.8395 118.75 71.5395 119C71.2495 119.24 71.0395 119.545 70.9095 119.915C70.7795 120.285 70.7145 120.67 70.7145 121.07C70.7145 121.49 70.7845 121.885 70.9245 122.255C71.0645 122.615 71.2795 122.905 71.5695 123.125C71.8695 123.345 72.2545 123.455 72.7245 123.455C73.1045 123.455 73.4445 123.37 73.7445 123.2C74.0545 123.03 74.2545 122.755 74.3445 122.375H76.2045C76.1345 122.985 75.9295 123.495 75.5895 123.905C75.2595 124.305 74.8395 124.605 74.3295 124.805C73.8195 125.005 73.2695 125.105 72.6795 125.105ZM81.1184 125.105C80.2984 125.105 79.5984 124.935 79.0184 124.595C78.4484 124.255 78.0134 123.785 77.7134 123.185C77.4234 122.575 77.2784 121.87 77.2784 121.07C77.2784 120.27 77.4284 119.565 77.7284 118.955C78.0384 118.335 78.4784 117.85 79.0484 117.5C79.6284 117.15 80.3234 116.975 81.1334 116.975C81.7134 116.975 82.2284 117.08 82.6784 117.29C83.1284 117.49 83.5084 117.775 83.8184 118.145C84.1284 118.505 84.3584 118.925 84.5084 119.405C84.6584 119.875 84.7284 120.38 84.7184 120.92C84.7184 121.04 84.7134 121.16 84.7034 121.28C84.6934 121.39 84.6784 121.51 84.6584 121.64H79.1084C79.1384 121.99 79.2284 122.31 79.3784 122.6C79.5384 122.89 79.7584 123.12 80.0384 123.29C80.3284 123.46 80.6884 123.545 81.1184 123.545C81.3684 123.545 81.6084 123.515 81.8384 123.455C82.0684 123.385 82.2684 123.285 82.4384 123.155C82.6184 123.025 82.7384 122.86 82.7984 122.66H84.6284C84.4984 123.23 84.2584 123.695 83.9084 124.055C83.5584 124.415 83.1384 124.68 82.6484 124.85C82.1684 125.02 81.6584 125.105 81.1184 125.105ZM79.1384 120.275H82.9484C82.9484 119.945 82.8734 119.645 82.7234 119.375C82.5734 119.105 82.3584 118.895 82.0784 118.745C81.8084 118.585 81.4784 118.505 81.0884 118.505C80.6684 118.505 80.3184 118.59 80.0384 118.76C79.7584 118.93 79.5434 119.15 79.3934 119.42C79.2434 119.69 79.1584 119.975 79.1384 120.275ZM90.3664 125V117.095H93.9514C94.2914 117.095 94.6314 117.12 94.9714 117.17C95.3214 117.21 95.6364 117.305 95.9164 117.455C96.1964 117.595 96.4214 117.8 96.5914 118.07C96.7714 118.33 96.8614 118.685 96.8614 119.135C96.8614 119.375 96.8214 119.6 96.7414 119.81C96.6714 120.02 96.5664 120.2 96.4264 120.35C96.2964 120.5 96.1314 120.63 95.9314 120.74C96.3914 120.87 96.7214 121.1 96.9214 121.43C97.1314 121.75 97.2364 122.14 97.2364 122.6C97.2364 123.03 97.1514 123.4 96.9814 123.71C96.8114 124.01 96.5814 124.255 96.2914 124.445C96.0114 124.635 95.6964 124.775 95.3464 124.865C95.0064 124.955 94.6614 125 94.3114 125H90.3664ZM92.2114 123.41H94.0864C94.3364 123.41 94.5614 123.385 94.7614 123.335C94.9614 123.285 95.1214 123.195 95.2414 123.065C95.3714 122.935 95.4364 122.755 95.4364 122.525C95.4364 122.315 95.3864 122.15 95.2864 122.03C95.1964 121.9 95.0714 121.81 94.9114 121.76C94.7614 121.7 94.5914 121.665 94.4014 121.655C94.2114 121.635 94.0264 121.625 93.8464 121.625H92.2114V123.41ZM92.2114 120.335H93.4564C93.6264 120.335 93.8064 120.325 93.9964 120.305C94.1864 120.285 94.3664 120.245 94.5364 120.185C94.7064 120.115 94.8464 120.02 94.9564 119.9C95.0664 119.78 95.1214 119.625 95.1214 119.435C95.1214 119.175 95.0464 118.99 94.8964 118.88C94.7564 118.77 94.5814 118.7 94.3714 118.67C94.1714 118.64 93.9714 118.625 93.7714 118.625H92.2114V120.335ZM98.7454 125V117.095H100.575V122.24C100.635 122.13 100.71 122.01 100.8 121.88C100.9 121.75 100.985 121.645 101.055 121.565L104.445 117.095H106.065V125H104.25V119.915C104.17 120.045 104.085 120.17 103.995 120.29C103.915 120.4 103.835 120.505 103.755 120.605L100.41 125H98.7454ZM107.197 127.295V123.38C107.457 123.38 107.672 123.315 107.842 123.185C108.012 123.045 108.147 122.86 108.247 122.63C108.357 122.4 108.442 122.15 108.502 121.88C108.562 121.6 108.607 121.32 108.637 121.04C108.697 120.59 108.732 120.13 108.742 119.66C108.762 119.18 108.772 118.77 108.772 118.43C108.782 118.21 108.787 117.99 108.787 117.77C108.787 117.54 108.787 117.315 108.787 117.095H114.892V123.38H115.912V127.295H114.112V125H108.997V127.295H107.197ZM109.807 123.38H113.062V118.715H110.437C110.427 119.085 110.417 119.485 110.407 119.915C110.397 120.335 110.377 120.735 110.347 121.115C110.337 121.335 110.312 121.58 110.272 121.85C110.242 122.12 110.192 122.385 110.122 122.645C110.052 122.905 109.947 123.15 109.807 123.38ZM120.581 125.105C119.761 125.105 119.061 124.935 118.481 124.595C117.911 124.255 117.476 123.785 117.176 123.185C116.886 122.575 116.741 121.87 116.741 121.07C116.741 120.27 116.891 119.565 117.191 118.955C117.501 118.335 117.941 117.85 118.511 117.5C119.091 117.15 119.786 116.975 120.596 116.975C121.176 116.975 121.691 117.08 122.141 117.29C122.591 117.49 122.971 117.775 123.281 118.145C123.591 118.505 123.821 118.925 123.971 119.405C124.121 119.875 124.191 120.38 124.181 120.92C124.181 121.04 124.176 121.16 124.166 121.28C124.156 121.39 124.141 121.51 124.121 121.64H118.571C118.601 121.99 118.691 122.31 118.841 122.6C119.001 122.89 119.221 123.12 119.501 123.29C119.791 123.46 120.151 123.545 120.581 123.545C120.831 123.545 121.071 123.515 121.301 123.455C121.531 123.385 121.731 123.285 121.901 123.155C122.081 123.025 122.201 122.86 122.261 122.66H124.091C123.961 123.23 123.721 123.695 123.371 124.055C123.021 124.415 122.601 124.68 122.111 124.85C121.631 125.02 121.121 125.105 120.581 125.105ZM118.601 120.275H122.411C122.411 119.945 122.336 119.645 122.186 119.375C122.036 119.105 121.821 118.895 121.541 118.745C121.271 118.585 120.941 118.505 120.551 118.505C120.131 118.505 119.781 118.59 119.501 118.76C119.221 118.93 119.006 119.15 118.856 119.42C118.706 119.69 118.621 119.975 118.601 120.275ZM129.27 125.105C128.46 125.105 127.76 124.94 127.17 124.61C126.59 124.28 126.14 123.81 125.82 123.2C125.51 122.59 125.355 121.875 125.355 121.055C125.355 120.225 125.51 119.51 125.82 118.91C126.14 118.3 126.59 117.825 127.17 117.485C127.76 117.145 128.46 116.975 129.27 116.975C130.07 116.975 130.76 117.145 131.34 117.485C131.92 117.825 132.365 118.305 132.675 118.925C132.985 119.535 133.14 120.255 133.14 121.085C133.14 121.895 132.985 122.605 132.675 123.215C132.375 123.815 131.935 124.28 131.355 124.61C130.775 124.94 130.08 125.105 129.27 125.105ZM129.255 123.44C129.755 123.44 130.155 123.33 130.455 123.11C130.765 122.89 130.99 122.6 131.13 122.24C131.27 121.88 131.34 121.49 131.34 121.07C131.34 120.65 131.27 120.255 131.13 119.885C130.99 119.515 130.765 119.22 130.455 119C130.155 118.77 129.755 118.655 129.255 118.655C128.755 118.655 128.35 118.77 128.04 119C127.73 119.22 127.505 119.515 127.365 119.885C127.225 120.255 127.155 120.65 127.155 121.07C127.155 121.5 127.225 121.895 127.365 122.255C127.505 122.615 127.73 122.905 128.04 123.125C128.35 123.335 128.755 123.44 129.255 123.44Z" fill="#888A98"/>
<g opacity="0.1">
<path fill-rule="evenodd" clip-rule="evenodd" d="M91.556 99H100.444C106.686 99 109.808 99 112.05 97.53C113.017 96.8959 113.851 96.0777 114.502 95.122C116 92.922 116 89.856 116 83.728C116 77.598 116 74.534 114.502 72.334C113.851 71.3782 113.017 70.56 112.05 69.926C110.61 68.98 108.806 68.642 106.044 68.522C104.726 68.522 103.592 67.542 103.334 66.272C103.137 65.3417 102.625 64.508 101.884 63.9119C101.143 63.3157 100.219 62.9936 99.268 63H92.732C90.756 63 89.054 64.37 88.666 66.272C88.408 67.542 87.274 68.522 85.956 68.522C83.196 68.642 81.392 68.982 79.95 69.926C78.9832 70.5601 78.1507 71.3783 77.5 72.334C76 74.534 76 77.598 76 83.728C76 89.856 76 92.92 77.498 95.122C78.146 96.074 78.978 96.892 79.95 97.53C82.192 99 85.314 99 91.556 99ZM96 75.546C91.398 75.546 87.666 79.208 87.666 83.726C87.666 88.246 91.398 91.91 96 91.91C100.602 91.91 104.334 88.246 104.334 83.728C104.334 79.208 100.602 75.546 96 75.546ZM96 78.818C93.24 78.818 91 81.016 91 83.728C91 86.438 93.24 88.636 96 88.636C98.76 88.636 101 86.438 101 83.728C101 81.016 98.76 78.818 96 78.818ZM105.444 77.182C105.444 76.278 106.19 75.546 107.112 75.546H109.332C110.252 75.546 111 76.278 111 77.182C110.996 77.6198 110.818 78.038 110.506 78.3447C110.193 78.6515 109.772 78.8217 109.334 78.818H107.112C106.895 78.8201 106.68 78.7794 106.479 78.6984C106.277 78.6173 106.094 78.4974 105.939 78.3454C105.784 78.1935 105.661 78.0126 105.576 77.813C105.491 77.6133 105.446 77.3989 105.444 77.182Z" fill="#1A1B1C"/>
</g>
</svg>
