<svg width="192" height="193" viewBox="0 0 192 193" fill="none" xmlns="http://www.w3.org/2000/svg">
<rect x="0.815674" y="0.0986938" width="190.92" height="192.099" rx="29" fill="#F5F5F5"/>
<path d="M63.2808 125V114.395H67.6308C68.1208 114.395 68.5708 114.44 68.9808 114.53C69.4008 114.61 69.7608 114.755 70.0608 114.965C70.3708 115.175 70.6108 115.455 70.7808 115.805C70.9508 116.155 71.0358 116.59 71.0358 117.11C71.0358 117.59 70.9258 118.03 70.7058 118.43C70.4858 118.82 70.1608 119.115 69.7308 119.315C70.3108 119.465 70.7558 119.76 71.0658 120.2C71.3758 120.63 71.5308 121.19 71.5308 121.88C71.5308 122.49 71.4158 123 71.1858 123.41C70.9658 123.81 70.6558 124.13 70.2558 124.37C69.8658 124.6 69.4158 124.765 68.9058 124.865C68.3958 124.955 67.8558 125 67.2858 125H63.2808ZM65.1558 123.29H67.3908C67.6708 123.29 67.9458 123.27 68.2158 123.23C68.4858 123.19 68.7308 123.12 68.9508 123.02C69.1708 122.92 69.3408 122.775 69.4608 122.585C69.5908 122.385 69.6558 122.13 69.6558 121.82C69.6558 121.54 69.6058 121.31 69.5058 121.13C69.4058 120.95 69.2658 120.81 69.0858 120.71C68.9158 120.6 68.7108 120.525 68.4708 120.485C68.2308 120.435 67.9808 120.41 67.7208 120.41H65.1558V123.29ZM65.1558 118.835H67.1358C67.4458 118.835 67.7258 118.805 67.9758 118.745C68.2258 118.685 68.4408 118.595 68.6208 118.475C68.8008 118.355 68.9408 118.205 69.0408 118.025C69.1408 117.835 69.1908 117.61 69.1908 117.35C69.1908 117 69.1108 116.74 68.9508 116.57C68.8008 116.39 68.5908 116.27 68.3208 116.21C68.0508 116.14 67.7508 116.105 67.4208 116.105H65.1558V118.835ZM76.51 125.105C75.69 125.105 75 124.94 74.44 124.61C73.88 124.27 73.455 123.795 73.165 123.185C72.875 122.575 72.73 121.87 72.73 121.07C72.73 120.27 72.88 119.565 73.18 118.955C73.48 118.335 73.92 117.85 74.5 117.5C75.08 117.15 75.785 116.975 76.615 116.975C77.225 116.975 77.765 117.08 78.235 117.29C78.715 117.5 79.1 117.81 79.39 118.22C79.69 118.62 79.88 119.12 79.96 119.72H78.16C78.04 119.34 77.84 119.065 77.56 118.895C77.29 118.715 76.96 118.625 76.57 118.625C76.07 118.625 75.67 118.75 75.37 119C75.08 119.24 74.87 119.545 74.74 119.915C74.61 120.285 74.545 120.67 74.545 121.07C74.545 121.49 74.615 121.885 74.755 122.255C74.895 122.615 75.11 122.905 75.4 123.125C75.7 123.345 76.085 123.455 76.555 123.455C76.935 123.455 77.275 123.37 77.575 123.2C77.885 123.03 78.085 122.755 78.175 122.375H80.035C79.965 122.985 79.76 123.495 79.42 123.905C79.09 124.305 78.67 124.605 78.16 124.805C77.65 125.005 77.1 125.105 76.51 125.105ZM84.9489 125.105C84.1289 125.105 83.4289 124.935 82.8489 124.595C82.2789 124.255 81.8439 123.785 81.5439 123.185C81.2539 122.575 81.1089 121.87 81.1089 121.07C81.1089 120.27 81.2589 119.565 81.5589 118.955C81.8689 118.335 82.3089 117.85 82.8789 117.5C83.4589 117.15 84.1539 116.975 84.9639 116.975C85.5439 116.975 86.0589 117.08 86.5089 117.29C86.9589 117.49 87.3389 117.775 87.6489 118.145C87.9589 118.505 88.1889 118.925 88.3389 119.405C88.4889 119.875 88.5589 120.38 88.5489 120.92C88.5489 121.04 88.5439 121.16 88.5339 121.28C88.5239 121.39 88.5089 121.51 88.4889 121.64H82.9389C82.9689 121.99 83.0589 122.31 83.2089 122.6C83.3689 122.89 83.5889 123.12 83.8689 123.29C84.1589 123.46 84.5189 123.545 84.9489 123.545C85.1989 123.545 85.4389 123.515 85.6689 123.455C85.8989 123.385 86.0989 123.285 86.2689 123.155C86.4489 123.025 86.5689 122.86 86.6289 122.66H88.4589C88.3289 123.23 88.0889 123.695 87.7389 124.055C87.3889 124.415 86.9689 124.68 86.4789 124.85C85.9989 125.02 85.4889 125.105 84.9489 125.105ZM82.9689 120.275H86.7789C86.7789 119.945 86.7039 119.645 86.5539 119.375C86.4039 119.105 86.1889 118.895 85.9089 118.745C85.6389 118.585 85.3089 118.505 84.9189 118.505C84.4989 118.505 84.1489 118.59 83.8689 118.76C83.5889 118.93 83.3739 119.15 83.2239 119.42C83.0739 119.69 82.9889 119.975 82.9689 120.275ZM98.067 127.82V125.075C97.447 125.055 96.877 124.96 96.357 124.79C95.847 124.62 95.402 124.37 95.022 124.04C94.652 123.71 94.362 123.3 94.152 122.81C93.942 122.32 93.837 121.74 93.837 121.07C93.837 120.16 94.012 119.41 94.362 118.82C94.712 118.22 95.202 117.77 95.832 117.47C96.472 117.16 97.217 117 98.067 116.99V114.56H99.897V116.99C100.757 117 101.502 117.16 102.132 117.47C102.772 117.78 103.262 118.24 103.602 118.85C103.952 119.45 104.127 120.2 104.127 121.1C104.127 121.99 103.942 122.725 103.572 123.305C103.212 123.875 102.712 124.305 102.072 124.595C101.442 124.875 100.717 125.04 99.897 125.09V127.82H98.067ZM98.067 123.485V118.625C97.267 118.625 96.667 118.84 96.267 119.27C95.867 119.7 95.667 120.29 95.667 121.04C95.667 121.55 95.757 121.99 95.937 122.36C96.117 122.72 96.382 123 96.732 123.2C97.092 123.39 97.537 123.485 98.067 123.485ZM99.897 123.485C100.427 123.485 100.867 123.39 101.217 123.2C101.577 123 101.847 122.72 102.027 122.36C102.207 121.99 102.297 121.55 102.297 121.04C102.297 120.29 102.092 119.7 101.682 119.27C101.282 118.84 100.687 118.625 99.897 118.625V123.485ZM109.15 125.105C108.34 125.105 107.64 124.94 107.05 124.61C106.47 124.28 106.02 123.81 105.7 123.2C105.39 122.59 105.235 121.875 105.235 121.055C105.235 120.225 105.39 119.51 105.7 118.91C106.02 118.3 106.47 117.825 107.05 117.485C107.64 117.145 108.34 116.975 109.15 116.975C109.95 116.975 110.64 117.145 111.22 117.485C111.8 117.825 112.245 118.305 112.555 118.925C112.865 119.535 113.02 120.255 113.02 121.085C113.02 121.895 112.865 122.605 112.555 123.215C112.255 123.815 111.815 124.28 111.235 124.61C110.655 124.94 109.96 125.105 109.15 125.105ZM109.135 123.44C109.635 123.44 110.035 123.33 110.335 123.11C110.645 122.89 110.87 122.6 111.01 122.24C111.15 121.88 111.22 121.49 111.22 121.07C111.22 120.65 111.15 120.255 111.01 119.885C110.87 119.515 110.645 119.22 110.335 119C110.035 118.77 109.635 118.655 109.135 118.655C108.635 118.655 108.23 118.77 107.92 119C107.61 119.22 107.385 119.515 107.245 119.885C107.105 120.255 107.035 120.65 107.035 121.07C107.035 121.5 107.105 121.895 107.245 122.255C107.385 122.615 107.61 122.905 107.92 123.125C108.23 123.335 108.635 123.44 109.135 123.44ZM116.345 125V118.715H113.735V117.095H120.8V118.715H118.175V125H116.345ZM125.439 125.105C124.629 125.105 123.929 124.94 123.339 124.61C122.759 124.28 122.309 123.81 121.989 123.2C121.679 122.59 121.524 121.875 121.524 121.055C121.524 120.225 121.679 119.51 121.989 118.91C122.309 118.3 122.759 117.825 123.339 117.485C123.929 117.145 124.629 116.975 125.439 116.975C126.239 116.975 126.929 117.145 127.509 117.485C128.089 117.825 128.534 118.305 128.844 118.925C129.154 119.535 129.309 120.255 129.309 121.085C129.309 121.895 129.154 122.605 128.844 123.215C128.544 123.815 128.104 124.28 127.524 124.61C126.944 124.94 126.249 125.105 125.439 125.105ZM125.424 123.44C125.924 123.44 126.324 123.33 126.624 123.11C126.934 122.89 127.159 122.6 127.299 122.24C127.439 121.88 127.509 121.49 127.509 121.07C127.509 120.65 127.439 120.255 127.299 119.885C127.159 119.515 126.934 119.22 126.624 119C126.324 118.77 125.924 118.655 125.424 118.655C124.924 118.655 124.519 118.77 124.209 119C123.899 119.22 123.674 119.515 123.534 119.885C123.394 120.255 123.324 120.65 123.324 121.07C123.324 121.5 123.394 121.895 123.534 122.255C123.674 122.615 123.899 122.905 124.209 123.125C124.519 123.335 124.924 123.44 125.424 123.44Z" fill="#888A98"/>
<g opacity="0.1">
<path fill-rule="evenodd" clip-rule="evenodd" d="M91.556 99H100.444C106.686 99 109.808 99 112.05 97.53C113.017 96.8959 113.851 96.0777 114.502 95.122C116 92.922 116 89.856 116 83.728C116 77.598 116 74.534 114.502 72.334C113.851 71.3782 113.017 70.56 112.05 69.926C110.61 68.98 108.806 68.642 106.044 68.522C104.726 68.522 103.592 67.542 103.334 66.272C103.137 65.3417 102.625 64.508 101.884 63.9119C101.143 63.3157 100.219 62.9936 99.268 63H92.732C90.756 63 89.054 64.37 88.666 66.272C88.408 67.542 87.274 68.522 85.956 68.522C83.196 68.642 81.392 68.982 79.95 69.926C78.9832 70.5601 78.1507 71.3783 77.5 72.334C76 74.534 76 77.598 76 83.728C76 89.856 76 92.92 77.498 95.122C78.146 96.074 78.978 96.892 79.95 97.53C82.192 99 85.314 99 91.556 99ZM96 75.546C91.398 75.546 87.666 79.208 87.666 83.726C87.666 88.246 91.398 91.91 96 91.91C100.602 91.91 104.334 88.246 104.334 83.728C104.334 79.208 100.602 75.546 96 75.546ZM96 78.818C93.24 78.818 91 81.016 91 83.728C91 86.438 93.24 88.636 96 88.636C98.76 88.636 101 86.438 101 83.728C101 81.016 98.76 78.818 96 78.818ZM105.444 77.182C105.444 76.278 106.19 75.546 107.112 75.546H109.332C110.252 75.546 111 76.278 111 77.182C110.996 77.6198 110.818 78.038 110.506 78.3447C110.193 78.6515 109.772 78.8217 109.334 78.818H107.112C106.895 78.8201 106.68 78.7794 106.479 78.6984C106.277 78.6173 106.094 78.4974 105.939 78.3454C105.784 78.1935 105.661 78.0126 105.576 77.813C105.491 77.6133 105.446 77.3989 105.444 77.182Z" fill="#1A1B1C"/>
</g>
</svg>
