<svg width="197" height="197" viewBox="0 0 197 197" fill="none" xmlns="http://www.w3.org/2000/svg">
<g clip-path="url(#clip0_243_2405)">
<rect width="197" height="197" rx="28" fill="#EFECFF"/>
<g filter="url(#filter0_f_243_2405)">
<rect x="-6" width="209" height="203" fill="#EFECFF" fill-opacity="0.5"/>
</g>
<path d="M70.8804 126.5C69.2041 126.5 67.8056 125.94 66.6848 124.819C65.564 123.698 65.0024 122.298 65 120.62V81.436C65 79.7597 65.5616 78.3612 66.6848 77.2404C67.808 76.1196 69.2066 75.558 70.8804 75.5556H81.6406L86.6114 70.1518C87.1451 69.5745 87.7916 69.1184 88.5509 68.7836C89.3053 68.4464 90.0974 68.2778 90.9271 68.2778H105.446C105.963 68.2778 106.396 68.4525 106.745 68.8018C107.095 69.1511 107.269 69.5842 107.269 70.1009C107.269 70.6176 107.095 71.0494 106.745 71.3963C106.396 71.7432 105.964 71.9167 105.45 71.9167H89.9482L83.2381 79.1945H70.8804C70.2254 79.1945 69.6881 79.4043 69.2684 79.824C68.8487 80.2437 68.6389 80.781 68.6389 81.436V120.623C68.6389 121.276 68.8487 121.812 69.2684 122.232C69.6881 122.651 70.2254 122.861 70.8804 122.861H124.623C125.276 122.861 125.812 122.651 126.232 122.232C126.651 121.812 126.861 121.275 126.861 120.62V93.3279C126.861 92.8136 127.036 92.3818 127.385 92.0325C127.734 91.6831 128.167 91.5085 128.684 91.5085C129.201 91.5085 129.633 91.6831 129.98 92.0325C130.327 92.3818 130.5 92.8136 130.5 93.3279V120.62C130.5 122.296 129.938 123.694 128.815 124.815C127.692 125.936 126.295 126.498 124.623 126.5H70.8804ZM126.861 71.9167H121.403C120.886 71.9167 120.454 71.742 120.107 71.3927C119.76 71.0434 119.586 70.6103 119.583 70.0936C119.581 69.5769 119.756 69.1451 120.107 68.7982C120.459 68.4513 120.891 68.2778 121.403 68.2778H126.861V62.8195C126.861 62.3027 127.036 61.8709 127.385 61.524C127.734 61.1771 128.167 61.0025 128.684 61C129.201 60.9976 129.633 61.1723 129.98 61.524C130.327 61.8758 130.5 62.3076 130.5 62.8195V68.2778H135.958C136.475 68.2778 136.907 68.4525 137.254 68.8018C137.601 69.1511 137.775 69.5842 137.778 70.1009C137.78 70.6176 137.606 71.0494 137.254 71.3963C136.902 71.7432 136.47 71.9167 135.958 71.9167H130.5V77.375C130.5 77.8917 130.325 78.3236 129.976 78.6705C129.627 79.0174 129.194 79.192 128.677 79.1945C128.16 79.1969 127.728 79.0222 127.381 78.6705C127.035 78.3187 126.861 77.8869 126.861 77.375V71.9167ZM97.75 114.601C101.551 114.601 104.765 113.29 107.389 110.667C110.014 108.045 111.327 104.832 111.327 101.028C111.327 97.2239 110.014 94.0108 107.389 91.3884C104.765 88.7659 101.551 87.4535 97.75 87.4511C93.9486 87.4487 90.7354 88.7611 88.1106 91.3884C85.4857 94.0156 84.1733 97.2288 84.1733 101.028C84.1733 104.827 85.4857 108.04 88.1106 110.667C90.7354 113.294 93.9486 114.607 97.75 114.604M97.75 110.966C94.9238 110.966 92.5609 110.016 90.6614 108.116C88.7619 106.217 87.8122 103.854 87.8122 101.028C87.8122 98.2016 88.7619 95.8387 90.6614 93.9392C92.5609 92.0397 94.9238 91.09 97.75 91.09C100.576 91.09 102.939 92.0397 104.839 93.9392C106.738 95.8387 107.688 98.2016 107.688 101.028C107.688 103.854 106.738 106.217 104.839 108.116C102.939 110.016 100.576 110.966 97.75 110.966Z" fill="#C4BCFF"/>
</g>
<defs>
<filter id="filter0_f_243_2405" x="-24" y="-18" width="245" height="239" filterUnits="userSpaceOnUse" color-interpolation-filters="sRGB">
<feFlood flood-opacity="0" result="BackgroundImageFix"/>
<feBlend mode="normal" in="SourceGraphic" in2="BackgroundImageFix" result="shape"/>
<feGaussianBlur stdDeviation="9" result="effect1_foregroundBlur_243_2405"/>
</filter>
<clipPath id="clip0_243_2405">
<rect width="197" height="197" rx="28" fill="white"/>
</clipPath>
</defs>
</svg>
