<svg width="197" height="197" viewBox="0 0 197 197" fill="none" xmlns="http://www.w3.org/2000/svg">
<rect width="197" height="197" rx="28" fill="#EFECFF"/>
<path d="M138.162 91.4731C137.495 89.6953 136.273 88.1396 134.495 87.1396C135.384 84.695 136.829 80.4726 137.607 75.6947C139.384 65.6942 137.94 58.0272 133.273 53.3604C124.717 44.6933 105.939 46.5823 77.2707 58.6939C67.8258 57.5828 61.4922 59.2495 58.7143 63.583C54.603 69.9166 58.7143 80.1393 62.3811 86.9174C60.7144 87.8063 59.381 89.2508 58.6032 91.0287C57.8254 92.8065 57.3809 95.6955 59.2699 99.6957L59.381 99.8068L59.4921 99.9179C59.4921 99.9179 61.9367 103.696 62.1589 108.918C62.3811 113.474 64.159 115.474 65.6035 116.363C66.6035 117.03 67.8258 117.252 69.0481 117.141C69.3814 120.252 70.1593 125.363 71.3815 128.697C72.3816 131.697 75.715 136.253 79.6041 140.142C83.0487 143.586 88.3823 147.698 93.7158 147.92H102.827C108.161 147.698 113.494 143.586 116.939 140.142C120.828 136.253 124.162 131.697 125.162 128.697C126.273 125.363 127.051 120.252 127.495 117.141C128.717 117.252 129.94 116.919 130.94 116.363C132.384 115.474 134.273 113.474 134.384 108.918C134.606 103.696 137.051 99.9179 137.051 99.9179L137.162 99.8068L137.273 99.6957C139.162 96.0289 138.829 93.251 138.162 91.4731ZM133.051 97.5845C132.495 98.5845 129.94 102.918 129.717 108.918C129.606 111.585 128.828 112.252 128.606 112.363C128.162 112.585 127.384 112.474 126.606 112.141L123.495 110.585L123.162 114.03C123.162 114.141 122.384 122.808 120.828 127.252C119.384 131.586 109.605 142.809 102.938 143.142H94.0492C87.3822 142.809 77.604 131.475 76.1595 127.252C74.6039 122.697 73.8261 114.141 73.8261 114.03L73.4927 110.585L70.1593 112.141C69.3814 112.585 68.6036 112.585 68.1592 112.363C67.9369 112.252 67.1591 111.585 67.048 108.918C66.8258 102.918 64.2701 98.4734 63.7145 97.5845C62.9367 95.8066 62.7145 94.251 63.2701 93.0287C63.8256 91.8065 64.8257 91.2509 65.4924 91.0287C66.8258 90.5842 68.3814 90.6953 69.4926 91.362C70.6037 92.0287 71.2704 93.251 71.3815 94.8066L76.1595 94.251C76.0484 93.6954 76.0484 93.1399 75.8262 92.5843C77.0484 91.5842 78.8263 89.9175 80.493 87.8063C83.0487 84.4728 84.271 80.9171 84.3821 77.3614C86.0488 80.0282 88.6045 83.4728 91.938 86.584C96.716 91.0287 104.05 95.5844 113.828 95.5844C116.606 95.5844 119.495 95.2511 122.606 94.4733L125.495 94.8066C125.717 93.1399 126.384 91.9176 127.495 91.2509C128.717 90.5842 130.384 90.4731 131.717 91.1398C132.384 91.4731 133.162 92.0287 133.606 93.1399C134.051 94.3621 133.829 95.8066 133.051 97.5845Z" fill="#C4BCFF"/>
</svg>
