<svg width="103" height="23" viewBox="0 0 103 23" fill="none" xmlns="http://www.w3.org/2000/svg">
<path d="M2.896 22.16C2.34133 22.16 1.85067 22.032 1.424 21.776C0.997334 21.4987 0.656 21.104 0.4 20.592C0.165333 20.08 0.0480001 19.4507 0.0480001 18.704V0.207998H3.184V17.584C3.184 18.2453 3.344 18.6933 3.664 18.928C4.00533 19.1627 4.38933 19.28 4.816 19.28V21.84C4.53867 21.9467 4.24 22.0213 3.92 22.064C3.6 22.128 3.25867 22.16 2.896 22.16ZM12.5058 22.448C11.2898 22.448 10.2444 22.2347 9.36975 21.808C8.49508 21.3813 7.82308 20.7733 7.35375 19.984C6.90575 19.1733 6.68175 18.2133 6.68175 17.104C6.68175 16.08 6.91642 15.1733 7.38575 14.384C7.85508 13.5733 8.52708 12.9333 9.40175 12.464C10.2764 11.9947 11.3111 11.76 12.5058 11.76C13.9991 11.76 15.1938 12.1013 16.0898 12.784C17.0071 13.4453 17.6471 14.3627 18.0098 15.536H16.2178V11.536C16.2178 10.8747 15.9938 10.2667 15.5458 9.712C15.0978 9.15733 14.3084 8.88 13.1778 8.88C12.5804 8.88 11.9191 8.95467 11.1938 9.104C10.4898 9.232 9.75375 9.46667 8.98575 9.808L8.02575 7.344C8.90042 6.91733 9.80708 6.59733 10.7458 6.384C11.6844 6.17067 12.6018 6.064 13.4978 6.064C14.8418 6.064 15.9511 6.30933 16.8258 6.8C17.7004 7.29067 18.3511 7.952 18.7778 8.784C19.2044 9.59467 19.4178 10.512 19.4178 11.536V22H17.1138L16.3138 19.152L18.0098 18.672C17.6258 19.9307 16.9431 20.88 15.9618 21.52C14.9804 22.1387 13.8284 22.448 12.5058 22.448ZM13.0818 19.6C14.0204 19.6 14.7778 19.3867 15.3538 18.96C15.9298 18.512 16.2178 17.8933 16.2178 17.104C16.2178 16.2933 15.9298 15.6747 15.3538 15.248C14.7778 14.8213 14.0204 14.608 13.0818 14.608C12.1431 14.608 11.3858 14.8213 10.8098 15.248C10.2338 15.6747 9.94575 16.2933 9.94575 17.104C9.94575 17.8933 10.2338 18.512 10.8098 18.96C11.3858 19.3867 12.1431 19.6 13.0818 19.6ZM25.771 22.16C25.2163 22.16 24.7257 22.032 24.299 21.776C23.8723 21.4987 23.531 21.104 23.275 20.592C23.0403 20.08 22.923 19.4507 22.923 18.704V0.207998H26.059V17.584C26.059 18.2453 26.219 18.6933 26.539 18.928C26.8803 19.1627 27.2643 19.28 27.691 19.28V21.84C27.4137 21.9467 27.115 22.0213 26.795 22.064C26.475 22.128 26.1337 22.16 25.771 22.16ZM35.3808 22.448C34.1648 22.448 33.1194 22.2347 32.2448 21.808C31.3701 21.3813 30.6981 20.7733 30.2288 19.984C29.7808 19.1733 29.5568 18.2133 29.5568 17.104C29.5568 16.08 29.7914 15.1733 30.2608 14.384C30.7301 13.5733 31.4021 12.9333 32.2768 12.464C33.1514 11.9947 34.1861 11.76 35.3808 11.76C36.8741 11.76 38.0688 12.1013 38.9648 12.784C39.8821 13.4453 40.5221 14.3627 40.8848 15.536H39.0928V11.536C39.0928 10.8747 38.8688 10.2667 38.4208 9.712C37.9728 9.15733 37.1834 8.88 36.0528 8.88C35.4554 8.88 34.7941 8.95467 34.0688 9.104C33.3648 9.232 32.6288 9.46667 31.8608 9.808L30.9008 7.344C31.7754 6.91733 32.6821 6.59733 33.6208 6.384C34.5594 6.17067 35.4768 6.064 36.3728 6.064C37.7168 6.064 38.8261 6.30933 39.7008 6.8C40.5754 7.29067 41.2261 7.952 41.6528 8.784C42.0794 9.59467 42.2928 10.512 42.2928 11.536V22H39.9888L39.1888 19.152L40.8848 18.672C40.5008 19.9307 39.8181 20.88 38.8368 21.52C37.8554 22.1387 36.7034 22.448 35.3808 22.448ZM35.9568 19.6C36.8954 19.6 37.6528 19.3867 38.2288 18.96C38.8048 18.512 39.0928 17.8933 39.0928 17.104C39.0928 16.2933 38.8048 15.6747 38.2288 15.248C37.6528 14.8213 36.8954 14.608 35.9568 14.608C35.0181 14.608 34.2608 14.8213 33.6848 15.248C33.1088 15.6747 32.8208 16.2933 32.8208 17.104C32.8208 17.8933 33.1088 18.512 33.6848 18.96C34.2608 19.3867 35.0181 19.6 35.9568 19.6ZM53.1468 22.32C51.5468 22.32 50.1601 21.9787 48.9868 21.296C47.8134 20.592 46.9068 19.632 46.2668 18.416C45.6268 17.2 45.3068 15.792 45.3068 14.192C45.3068 12.592 45.6268 11.184 46.2668 9.968C46.9068 8.752 47.8134 7.80267 48.9868 7.12C50.1601 6.416 51.5468 6.064 53.1468 6.064C54.6614 6.064 56.0374 6.48 57.2748 7.312C58.5121 8.12267 59.4081 9.21067 59.9628 10.576L56.9228 11.856C56.5814 10.96 56.0694 10.288 55.3868 9.84C54.7041 9.37067 53.9254 9.136 53.0508 9.136C51.7708 9.136 50.7041 9.584 49.8508 10.48C48.9974 11.3547 48.5708 12.592 48.5708 14.192C48.5708 15.792 48.9974 17.04 49.8508 17.936C50.7041 18.8107 51.7708 19.248 53.0508 19.248C53.9254 19.248 54.7041 19.024 55.3868 18.576C56.0694 18.1067 56.5814 17.424 56.9228 16.528L59.9628 17.808C59.3868 19.1733 58.4801 20.272 57.2428 21.104C56.0268 21.9147 54.6614 22.32 53.1468 22.32ZM65.396 22.16C64.8413 22.16 64.3507 22.032 63.924 21.776C63.4973 21.4987 63.156 21.104 62.9 20.592C62.6653 20.08 62.548 19.4507 62.548 18.704V0.207998H65.684V17.584C65.684 18.2453 65.844 18.6933 66.164 18.928C66.5053 19.1627 66.8893 19.28 67.316 19.28V21.84C67.0387 21.9467 66.74 22.0213 66.42 22.064C66.1 22.128 65.7587 22.16 65.396 22.16ZM75.0698 22.32C73.8964 22.32 72.9684 22.1387 72.2858 21.776C71.6031 21.392 71.1018 20.8907 70.7818 20.272C70.4618 19.632 70.2484 18.9173 70.1418 18.128C70.0564 17.3387 70.0138 16.528 70.0138 15.696V6.384H73.2138V16.368C73.2138 17.4773 73.4591 18.224 73.9498 18.608C74.4618 18.992 75.0591 19.184 75.7418 19.184C76.4458 19.184 77.1391 19.0453 77.8218 18.768C78.5258 18.4907 79.1551 18.1173 79.7098 17.648C80.2858 17.1573 80.7124 16.6347 80.9898 16.08V17.872H80.4778V6.384H83.6778V22H81.2458L80.5738 19.248L81.3738 19.152C80.8191 19.8133 80.2004 20.3893 79.5178 20.88C78.8351 21.3493 78.1204 21.712 77.3738 21.968C76.6271 22.2027 75.8591 22.32 75.0698 22.32ZM95.6708 22.32C94.2628 22.32 93.0361 21.9787 91.9908 21.296C90.9454 20.6133 90.1241 19.664 89.5268 18.448C88.9508 17.2107 88.6628 15.7813 88.6628 14.16C88.6628 12.5387 88.9508 11.12 89.5268 9.904C90.1241 8.688 90.9454 7.74933 91.9908 7.088C93.0361 6.40533 94.2628 6.064 95.6708 6.064C97.1214 6.064 98.3801 6.40533 99.4468 7.088C100.535 7.74933 101.377 8.688 101.975 9.904C102.572 11.12 102.871 12.5387 102.871 14.16C102.871 15.7813 102.572 17.2107 101.975 18.448C101.377 19.664 100.535 20.6133 99.4468 21.296C98.3801 21.9787 97.1214 22.32 95.6708 22.32ZM87.7668 22V0.207998H90.9668V9.968H90.6468V18.864H90.9668L90.1988 22H87.7668ZM95.1908 19.568C96.5134 19.568 97.5801 19.0773 98.3908 18.096C99.2014 17.0933 99.6068 15.7813 99.6068 14.16C99.6068 12.56 99.2014 11.2693 98.3908 10.288C97.5801 9.30667 96.5134 8.816 95.1908 8.816C93.8894 8.816 92.8334 9.30667 92.0228 10.288C91.2121 11.2693 90.8068 12.5707 90.8068 14.192C90.8068 15.8133 91.2121 17.1147 92.0228 18.096C92.8334 19.0773 93.8894 19.568 95.1908 19.568Z" fill="url(#paint0_linear_0_93)"/>
<defs>
<linearGradient id="paint0_linear_0_93" x1="-2" y1="0" x2="104" y2="6.37205e-06" gradientUnits="userSpaceOnUse">
<stop stop-color="#FF70BD"/>
<stop offset="1" stop-color="#6242FB"/>
</linearGradient>
</defs>
</svg>
